<svg width="43.655823" height="35.000000" viewBox="0 0 43.6558 35" fill="none" xmlns="http://www.w3.org/2000/svg" xmlns:xlink="http://www.w3.org/1999/xlink">
	<desc>
			Created with Pixso.
	</desc>
	<defs>
		<clipPath id="clip32_597">
			<rect id="mail-unread-fill" rx="0.000000" width="26.440804" height="21.000000" transform="translate(9.231201 7.500000)" fill="white" fill-opacity="0"/>
		</clipPath>
	</defs>
	<rect id="Icon" rx="4.000000" width="43.655827" height="35.000000" fill="#F2E189" fill-opacity="0.660000"/>
	<rect id="mail-unread-fill" rx="0.000000" width="26.440804" height="21.000000" transform="translate(9.231201 7.500000)" fill="#FFFFFF" fill-opacity="0"/>
	<g clip-path="url(#clip32_597)">
		<path id="Vector" d="M30.22 14.78C31.36 15.22 32.64 15.35 33.88 15.15L33.88 25.33C33.88 25.57 33.76 25.8 33.55 25.98C33.33 26.15 33.04 26.25 32.74 26.25L12.16 26.25C11.85 26.25 11.56 26.15 11.35 25.98C11.13 25.8 11.01 25.57 11.01 25.33L11.01 10.66C11.01 10.42 11.13 10.19 11.35 10.01C11.56 9.84 11.85 9.74 12.16 9.74L27.13 9.74C27.06 10.04 27.02 10.35 27.02 10.66C27.02 11.75 27.5 12.8 28.38 13.63L22.52 17.7L15.18 12.71L13.7 14.11L22.53 20.12L30.22 14.78ZM32.74 13.41C32.29 13.41 31.84 13.34 31.42 13.2C31.01 13.06 30.63 12.86 30.31 12.61C29.99 12.35 29.74 12.05 29.57 11.71C29.4 11.38 29.31 11.02 29.31 10.66C29.31 10.3 29.4 9.94 29.57 9.61C29.74 9.28 29.99 8.97 30.31 8.72C30.63 8.46 31.01 8.26 31.42 8.12C31.84 7.98 32.29 7.91 32.74 7.91C33.65 7.91 34.52 8.2 35.16 8.72C35.81 9.23 36.17 9.93 36.17 10.66C36.17 11.39 35.81 12.09 35.16 12.61C34.52 13.12 33.65 13.41 32.74 13.41Z" fill="#FFB422" fill-opacity="1.000000" fill-rule="nonzero"/>
	</g>
</svg>
