<svg width="43.655823" height="35.000000" viewBox="0 0 43.6558 35" fill="none" xmlns="http://www.w3.org/2000/svg" xmlns:xlink="http://www.w3.org/1999/xlink">
	<desc>
			Created with Pixso.
	</desc>
	<defs>
	
	</defs>
	<rect id="Icon" rx="4.000000" width="43.655827" height="35.000000" fill="#89F2A6" fill-opacity="0.660000"/>
	<rect id="phone-fill" rx="0.000000" width="26.440804" height="21.000000" transform="translate(9.231201 7.500000)" fill="#FFFFFF" fill-opacity="0"/>
	<g clip-path="url(#clip32_589)">
		<path id="Vector" d="M32.74 22.05L32.74 25.29C32.74 25.52 32.63 25.74 32.43 25.91C32.23 26.08 31.96 26.19 31.67 26.2C31.17 26.23 30.77 26.25 30.45 26.25C20.35 26.25 12.16 19.68 12.16 11.58C12.16 11.33 12.17 11 12.21 10.6C12.23 10.37 12.36 10.15 12.57 9.99C12.78 9.83 13.06 9.74 13.35 9.75L17.39 9.75C17.53 9.74 17.67 9.79 17.78 9.86C17.88 9.94 17.95 10.04 17.96 10.16C17.99 10.37 18.01 10.54 18.04 10.66C18.26 11.93 18.73 13.17 19.42 14.33C19.53 14.51 19.45 14.73 19.25 14.85L16.78 16.26C18.29 19.08 21.09 21.33 24.61 22.54L26.37 20.56C26.44 20.48 26.54 20.43 26.66 20.4C26.78 20.38 26.91 20.38 27.02 20.43C28.47 20.98 30.01 21.35 31.6 21.53C31.75 21.55 31.96 21.57 32.22 21.59C32.37 21.6 32.5 21.65 32.59 21.74C32.69 21.82 32.74 21.93 32.74 22.05L32.74 22.05Z" fill="#00C938" fill-opacity="1.000000" fill-rule="nonzero"/>
	</g>
</svg>
