<svg width="18.333313" height="18.333344" viewBox="0 0 18.3333 18.3333" fill="none" xmlns="http://www.w3.org/2000/svg" xmlns:xlink="http://www.w3.org/1999/xlink">
	<desc>
			Created with Pixso.
	</desc>
	<defs/>
	<path id="Vector" d="M8.25 8.25L8.25 4.58L10.08 4.58L10.08 8.25L13.75 8.25L13.75 10.08L10.08 10.08L10.08 13.75L8.25 13.75L8.25 10.08L4.58 10.08L4.58 8.25L8.25 8.25ZM9.16 18.33C4.1 18.33 0 14.22 0 9.16C0 4.1 4.1 0 9.16 0C14.22 0 18.33 4.1 18.33 9.16C18.33 14.22 14.22 18.33 9.16 18.33ZM9.16 16.5C11.11 16.5 12.97 15.72 14.35 14.35C15.72 12.97 16.5 11.11 16.5 9.16C16.5 7.22 15.72 5.35 14.35 3.98C12.97 2.6 11.11 1.83 9.16 1.83C7.22 1.83 5.35 2.6 3.98 3.98C2.6 5.35 1.83 7.22 1.83 9.16C1.83 11.11 2.6 12.97 3.98 14.35C5.35 15.72 7.22 16.5 9.16 16.5Z" fill="#007521" fill-opacity="1.000000" fill-rule="nonzero"/>
</svg>
