<svg width="18.333313" height="18.333328" viewBox="0 0 18.3333 18.3333" fill="none" xmlns="http://www.w3.org/2000/svg" xmlns:xlink="http://www.w3.org/1999/xlink">
	<desc>
			Created with Pixso.
	</desc>
	<defs/>
	<path id="Vector" d="M13.75 1.83L17.41 1.83C17.65 1.83 17.89 1.92 18.06 2.1C18.23 2.27 18.33 2.5 18.33 2.75L18.33 17.41C18.33 17.65 18.23 17.89 18.06 18.06C17.89 18.23 17.65 18.33 17.41 18.33L0.91 18.33C0.67 18.33 0.44 18.23 0.26 18.06C0.09 17.89 0 17.65 0 17.41L0 2.75C0 2.5 0.09 2.27 0.26 2.1C0.44 1.92 0.67 1.83 0.91 1.83L4.58 1.83L4.58 0L6.41 0L6.41 1.83L11.91 1.83L11.91 0L13.75 0L13.75 1.83ZM11.91 3.66L6.41 3.66L6.41 5.5L4.58 5.5L4.58 3.66L1.83 3.66L1.83 7.33L16.5 7.33L16.5 3.66L13.75 3.66L13.75 5.5L11.91 5.5L11.91 3.66ZM16.5 9.16L1.83 9.16L1.83 16.5L16.5 16.5L16.5 9.16Z" fill="#7C7C7C" fill-opacity="1.000000" fill-rule="nonzero"/>
</svg>
