<svg width="16.500000" height="16.500000" viewBox="0 0 16.5 16.5" fill="none" xmlns="http://www.w3.org/2000/svg" xmlns:xlink="http://www.w3.org/1999/xlink">
	<desc>
			Created with Pixso.
	</desc>
	<defs/>
	<path id="Vector" d="M5.83 7.04C6.69 8.55 7.94 9.8 9.45 10.66L10.26 9.52C10.39 9.34 10.59 9.21 10.81 9.16C11.02 9.11 11.25 9.15 11.45 9.25C12.75 9.96 14.18 10.39 15.65 10.5C15.88 10.52 16.1 10.63 16.25 10.8C16.41 10.96 16.5 11.19 16.5 11.42L16.5 15.51C16.5 15.73 16.41 15.95 16.26 16.12C16.11 16.29 15.9 16.4 15.67 16.42C15.19 16.47 14.7 16.5 14.2 16.5C6.36 16.5 0 10.13 0 2.29C0 1.79 0.02 1.3 0.07 0.82C0.09 0.59 0.2 0.38 0.37 0.23C0.54 0.08 0.76 -4.58e-5 0.98 0L5.07 0C5.3 -3.06e-5 5.53 0.08 5.69 0.24C5.86 0.39 5.97 0.61 5.99 0.84C6.1 2.31 6.53 3.74 7.24 5.04C7.34 5.24 7.38 5.47 7.33 5.68C7.28 5.9 7.15 6.1 6.97 6.23L5.83 7.04ZM3.52 6.43L5.26 5.19C4.77 4.12 4.43 2.99 4.25 1.83L1.84 1.83C1.83 1.98 1.83 2.13 1.83 2.29C1.83 9.12 7.37 14.66 14.2 14.66C14.36 14.66 14.51 14.66 14.66 14.65L14.66 12.24C13.5 12.06 12.37 11.72 11.3 11.23L10.06 12.97C9.55 12.78 9.07 12.55 8.6 12.28L8.55 12.25C6.75 11.23 5.26 9.74 4.24 7.94L4.21 7.89C3.94 7.42 3.71 6.94 3.52 6.43Z" fill="#7C7C7C" fill-opacity="1.000000" fill-rule="nonzero"/>
</svg>
